<?xml version="1.0" encoding="UTF-8"?><svg id="_레이어_1" xmlns="http://www.w3.org/2000/svg" xmlns:xlink="http://www.w3.org/1999/xlink" viewBox="0 0 460 120"><defs><style>.cls-1{fill:#3a3a3a;}.cls-2{fill:url(#_무제_그라디언트_6);}.cls-2,.cls-3{isolation:isolate;opacity:.5;}.cls-4{fill:url(#_무제_그라디언트_4-4);}.cls-5{fill:url(#_무제_그라디언트_4-3);}.cls-6{fill:url(#_무제_그라디언트_4-2);}.cls-7{fill:url(#_무제_그라디언트_4);}.cls-3{fill:url(#_무제_그라디언트_6-2);}</style><linearGradient id="_무제_그라디언트_4" x1="68.94" y1="78.75" x2="14.19" y2="78.75" gradientTransform="translate(0 122) scale(1 -1)" gradientUnits="userSpaceOnUse"><stop offset="0" stop-color="#4d4aff"/><stop offset="1" stop-color="#00daff"/></linearGradient><linearGradient id="_무제_그라디언트_4-2" x1="56.3" y1="46.47" x2="111.05" y2="46.47" xlink:href="#_무제_그라디언트_4"/><linearGradient id="_무제_그라디언트_4-3" x1="77.87" y1="51.88" x2="77.87" y2="103.85" xlink:href="#_무제_그라디언트_4"/><linearGradient id="_무제_그라디언트_4-4" x1="47.28" y1="21.29" x2="47.28" y2="73.47" xlink:href="#_무제_그라디언트_4"/><linearGradient id="_무제_그라디언트_6" x1="53.6" y1="79.48" x2="16.76" y2="107.25" gradientTransform="translate(0 122) scale(1 -1)" gradientUnits="userSpaceOnUse"><stop offset="0" stop-color="#1600b4"/><stop offset=".64" stop-color="#fff" stop-opacity="0"/></linearGradient><linearGradient id="_무제_그라디언트_6-2" x1="-420.29" y1="598.39" x2="-457.38" y2="626.31" gradientTransform="translate(-348.85 -522.25) rotate(-180) scale(1 -1)" xlink:href="#_무제_그라디언트_6"/></defs><g id="_레이어_1-2"><path class="cls-7" d="m51.04,22.46l8.08,11.51,4.56,6.52-4.56,6.52-6.95,9.91-2.78,3.95-2.78-3.95L22.45,22.41h28.59m-1.65,35.46l3.52-5.04,6.95-9.91,1.74-2.48-1.74-2.48-8.43-12.04-1.3-1.82h-24.38l4.74,6.78,15.38,21.94,3.52,5.04m3.91-39.76H14.19l28.9,41.28,6.3,8.99,6.3-8.99,6.95-9.91,6.3-8.99-6.3-8.99-9.34-13.34h0v-.04Zm-3.91,32.29l-15.38-21.94h13.9l8.43,12.04-6.95,9.91h0Z"/><path class="cls-6" d="m75.85,57.91l2.78,3.95,24.16,34.5h-28.59l-8.08-11.51-4.56-6.52,4.56-6.52,6.95-9.91,2.78-3.95m-.78,36.76h24.38l-4.74-6.78-15.38-21.94-3.52-5.04-3.52,5.04-6.95,9.91-1.74,2.48,1.74,2.48,8.43,12.04,1.3,1.82m.78-44.28l-6.3,8.99-6.95,9.91-6.3,8.99,6.3,8.99,9.34,13.34h39.11l-28.9-41.28-6.3-8.99h0v.04Zm1.48,39.98l-8.43-12.04,6.95-9.91,15.38,21.94h-13.9Z"/><polygon class="cls-5" points="69.81 18.15 42 57.91 50.56 70.12 77.07 32.15 102.1 32.15 113.74 18.15 69.81 18.15"/><polygon class="cls-4" points="74.55 48.53 48.17 86.72 23.15 86.72 11.5 100.71 55.43 100.71 83.07 60.69 74.55 48.53"/><polygon class="cls-2" points="48.3 48.88 34.01 28.5 47.91 28.5 55.21 38.97 61.56 29.97 53.3 18.15 14.19 18.15 42 57.91 48.3 48.88"/><polygon class="cls-3" points="76.77 69.73 91.24 90.37 77.33 90.37 69.81 79.64 63.51 88.63 71.94 100.71 111.05 100.71 83.07 60.69 76.77 69.73"/><path class="cls-1" d="m131.99,81.59l18.34-25.81v7.34l-17.55-25.07h11.17l12.17,17.42-4.78.13,12.08-17.55h10.69l-17.47,24.64v-7.21l18.51,26.11h-11.43l-12.6-18.47h4.52l-12.38,18.47h-11.3.04Z"/><path class="cls-1" d="m181.62,81.59v-32.89h9.12v9.34l-1.3-2.74c.96-2.3,2.56-4.08,4.69-5.3,2.17-1.22,4.78-1.78,7.86-1.78v8.86c-.35-.09-.74-.13-1.09-.17-.35,0-.7-.04-1-.04-2.69,0-4.82.74-6.43,2.26s-2.39,3.82-2.39,6.95v15.51h-9.52.04Z"/><path class="cls-1" d="m210.16,92.63v-43.93h9.12v6.6l-.17,9.6.61,9.56v18.21h-9.52l-.04-.04Zm19.38-11.17c-2.74,0-5.13-.61-7.21-1.78s-3.69-3.04-4.87-5.47c-1.17-2.48-1.74-5.56-1.74-9.34s.56-6.91,1.65-9.39c1.09-2.43,2.69-4.26,4.78-5.47s4.56-1.78,7.34-1.78c3.13,0,5.95.7,8.39,2.09,2.48,1.39,4.43,3.3,5.87,5.78,1.43,2.48,2.17,5.39,2.17,8.78s-.74,6.34-2.17,8.78c-1.43,2.48-3.39,4.39-5.87,5.78s-5.26,2.09-8.39,2.09l.04-.04Zm-1.61-7.69c1.61,0,3-.35,4.26-1.09s2.26-1.74,3-3.09,1.13-2.91,1.13-4.78-.39-3.48-1.13-4.82c-.74-1.3-1.74-2.35-3-3.04-1.26-.7-2.65-1.04-4.26-1.04s-3,.35-4.26,1.04-2.26,1.69-3.04,3.04c-.74,1.3-1.13,2.91-1.13,4.82s.39,3.43,1.13,4.78,1.78,2.39,3.04,3.09c1.26.74,2.69,1.09,4.26,1.09Z"/><path class="cls-1" d="m254.75,81.59v-43.54h9.52v43.54h-9.52Z"/><path class="cls-1" d="m290.38,81.46c-3.43,0-6.69-.43-9.86-1.35-3.17-.91-5.69-2.09-7.6-3.52l3.35-7.3c1.78,1.26,3.95,2.35,6.47,3.13,2.52.83,5.08,1.22,7.65,1.22,1.96,0,3.52-.22,4.74-.61s2.09-.91,2.65-1.61c.56-.65.87-1.43.87-2.3,0-1.13-.43-2-1.35-2.65s-2.09-1.22-3.56-1.61-3.13-.83-4.87-1.22-3.52-.83-5.3-1.39-3.39-1.26-4.91-2.17-2.65-2.09-3.56-3.52c-.87-1.48-1.3-3.3-1.3-5.47,0-2.39.65-4.61,1.96-6.56,1.3-2,3.3-3.56,5.95-4.74s6.04-1.78,10.04-1.78c2.69,0,5.34.3,8,.96s4.91,1.56,6.87,2.74l-3.13,7.3c-1.91-1.09-3.91-1.87-5.91-2.43-2.04-.52-4-.83-5.87-.83s-3.52.22-4.69.61c-1.17.43-2.04,1-2.61,1.69s-.83,1.52-.83,2.39c0,1.13.43,2,1.35,2.69.91.7,2.09,1.22,3.56,1.61s3.09.74,4.91,1.13c1.78.39,3.56.87,5.3,1.39,1.74.56,3.35,1.26,4.82,2.13s2.65,2,3.56,3.48,1.39,3.26,1.39,5.43c0,2.35-.65,4.52-2,6.47-1.3,1.96-3.35,3.52-6.04,4.74s-6.04,1.78-10.08,1.78l.04.17Z"/><path class="cls-1" d="m323.92,81.59l-11.86-32.89h8.99l9.82,28.29h-4.35l10.25-28.29h8.13l9.91,28.29h-4.17l10.08-28.29h8.43l-11.91,32.89h-9.17l-8.82-24.25h2.74l-8.91,24.25h-9.21.04Z"/><path class="cls-1" d="m385.15,82.07c-2.52,0-4.69-.43-6.52-1.3-1.82-.87-3.26-2.09-4.26-3.56-1-1.52-1.48-3.22-1.48-5.08s.48-3.61,1.43-5.08,2.48-2.65,4.56-3.43c2.09-.83,4.82-1.22,8.17-1.22h8.69v5.52h-7.69c-2.26,0-3.78.35-4.61,1.09s-1.26,1.65-1.26,2.74c0,1.22.48,2.17,1.43,2.91.96.7,2.26,1.09,3.87,1.09s3.09-.35,4.39-1.09,2.17-1.87,2.74-3.35l1.48,4.48c-.7,2.04-1.96,3.61-3.78,4.74-1.82,1.13-4.21,1.69-7.08,1.69l-.09-.13Zm10.04-.48v-6.43l-.61-1.39v-11.47c0-2.04-.61-3.61-1.87-4.78-1.26-1.13-3.13-1.69-5.69-1.69-1.74,0-3.48.26-5.17.83-1.69.56-3.13,1.3-4.39,2.22l-3.35-6.65c1.78-1.3,3.95-2.3,6.47-2.95,2.52-.65,5.08-1,7.69-1,5,0,8.91,1.17,11.69,3.56,2.78,2.35,4.17,6.04,4.17,11.08v18.77h-8.91l-.04-.09Z"/><path class="cls-1" d="m412.74,92.63v-43.93h9.12v6.6l-.17,9.6.61,9.56v18.21h-9.52l-.04-.04Zm19.38-11.17c-2.74,0-5.13-.61-7.21-1.78s-3.69-3.04-4.87-5.47c-1.17-2.48-1.74-5.56-1.74-9.34s.56-6.91,1.65-9.39c1.09-2.43,2.69-4.26,4.78-5.47s4.56-1.78,7.34-1.78c3.13,0,5.95.7,8.39,2.09,2.48,1.39,4.43,3.3,5.87,5.78s2.17,5.39,2.17,8.78-.74,6.34-2.17,8.78c-1.43,2.48-3.39,4.39-5.87,5.78s-5.26,2.09-8.39,2.09l.04-.04Zm-1.61-7.69c1.61,0,3-.35,4.26-1.09s2.26-1.74,3-3.09c.74-1.35,1.13-2.91,1.13-4.78s-.39-3.48-1.13-4.82c-.74-1.3-1.74-2.35-3-3.04s-2.65-1.04-4.26-1.04-3,.35-4.26,1.04-2.26,1.69-3.04,3.04c-.74,1.3-1.13,2.91-1.13,4.82s.39,3.43,1.13,4.78c.74,1.35,1.78,2.39,3.04,3.09,1.26.74,2.69,1.09,4.26,1.09Z"/></g></svg>