<?xml version="1.0" encoding="UTF-8"?><svg xmlns="http://www.w3.org/2000/svg" xmlns:xlink="http://www.w3.org/1999/xlink" viewBox="0 0 50 50"><defs><style>.cls-1{fill:url(#_무제_그라디언트_456);}.cls-1,.cls-2,.cls-3{isolation:isolate;}.cls-1,.cls-3{mix-blend-mode:multiply;opacity:.5;}.cls-2{fill:none;}.cls-4{fill:url(#_무제_그라디언트_112);}.cls-3{fill:url(#_무제_그라디언트_456-2);}.cls-5{fill:url(#_무제_그라디언트_112-3);}.cls-6{fill:url(#_무제_그라디언트_112-2);}.cls-7{fill:url(#_무제_그라디언트_112-4);}</style><linearGradient id="_무제_그라디언트_112" x1="26.96" y1="19.99" x2="9.95" y2="19.99" gradientUnits="userSpaceOnUse"><stop offset="0" stop-color="#4d4aff"/><stop offset="1" stop-color="#00daff"/></linearGradient><linearGradient id="_무제_그라디언트_112-2" x1="23.04" y1="30.01" x2="40.05" y2="30.01" xlink:href="#_무제_그라디언트_112"/><linearGradient id="_무제_그라디언트_112-3" x1="29.74" y1="28.32" x2="29.74" y2="12.17" xlink:href="#_무제_그라디언트_112"/><linearGradient id="_무제_그라디언트_112-4" x1="20.23" y1="37.83" x2="20.23" y2="21.61" xlink:href="#_무제_그라디언트_112"/><linearGradient id="_무제_그라디언트_456" x1="22.2" y1="19.75" x2="10.75" y2="11.12" gradientUnits="userSpaceOnUse"><stop offset="0" stop-color="#1600b4"/><stop offset=".64" stop-color="#fff" stop-opacity="0"/></linearGradient><linearGradient id="_무제_그라디언트_456-2" x1="-556.59" y1="-446.44" x2="-568.11" y2="-455.12" gradientTransform="translate(-528.85 -416.25) rotate(-180)" xlink:href="#_무제_그라디언트_456"/></defs><g class="cls-2"><g id="_레이어_1"><path class="cls-4" d="m21.4,13.51l2.5,3.58,1.42,2.03-1.42,2.03-2.16,3.08-.86,1.23-.86-1.23-7.51-10.72h8.89m-.52,11.02l1.1-1.56,2.16-3.08.54-.77-.54-.77-2.62-3.74-.4-.57h-7.58l1.47,2.1,4.77,6.82,1.1,1.56m1.21-12.36h-12.15l8.98,12.83,1.96,2.8,1.96-2.8,2.16-3.08,1.96-2.8-1.96-2.8-2.9-4.15h0Zm-1.21,10.03l-4.77-6.82h4.32l2.62,3.74-2.16,3.08h0Z"/><path class="cls-6" d="m29.11,24.53l.86,1.23,7.51,10.72h-8.89l-2.5-3.58-1.42-2.03,1.42-2.03,2.16-3.08.86-1.23m-.24,11.42h7.58l-1.47-2.1-4.77-6.82-1.1-1.56-1.1,1.56-2.16,3.08-.54.77.54.77,2.62,3.74.4.57m.24-13.75l-1.96,2.8-2.16,3.08-1.96,2.8,1.96,2.8,2.9,4.15h12.15l-8.98-12.83-1.96-2.8h0Zm.46,12.41l-2.62-3.74,2.16-3.08,4.77,6.82h-4.32Z"/><polygon class="cls-5" points="27.23 12.17 18.6 24.53 21.25 28.32 29.49 16.52 37.26 16.52 40.88 12.17 27.23 12.17"/><polygon class="cls-7" points="28.7 21.61 20.51 33.48 12.74 33.48 9.12 37.83 22.77 37.83 31.35 25.4 28.7 21.61"/><polygon class="cls-1" points="20.55 21.72 16.11 15.38 20.43 15.38 22.7 18.64 24.66 15.84 22.1 12.17 9.95 12.17 18.6 24.53 20.55 21.72"/><polygon class="cls-3" points="29.39 28.19 33.88 34.62 29.57 34.62 27.23 31.28 25.27 34.07 27.9 37.83 40.05 37.83 31.35 25.4 29.39 28.19"/></g></g></svg>